<svg id="visual" viewBox="0 0 900 600" width="900" height="600" xmlns="http://www.w3.org/2000/svg" xmlns:xlink="http://www.w3.org/1999/xlink" version="1.1"><rect x="0" y="0" width="900" height="600" fill="#fdfdfd"></rect><path d="M0 413L37.5 411.7C75 410.3 150 407.7 225 378C300 348.3 375 291.7 450 287C525 282.3 600 329.7 675 334.3C750 339 825 301 862.5 282L900 263L900 601L862.5 601C825 601 750 601 675 601C600 601 525 601 450 601C375 601 300 601 225 601C150 601 75 601 37.5 601L0 601Z" fill="#2472e8" stroke-linecap="round" stroke-linejoin="miter"></path></svg>