<svg id="visual" viewBox="0 0 900 600" width="900" height="600" xmlns="http://www.w3.org/2000/svg" xmlns:xlink="http://www.w3.org/1999/xlink" version="1.1"><rect x="0" y="0" width="900" height="600" fill="#f3f5f6"></rect><defs><linearGradient id="grad1_0" x1="33.3%" y1="0%" x2="100%" y2="100%"><stop offset="20%" stop-color="#f3f5f6" stop-opacity="1"></stop><stop offset="80%" stop-color="#f3f5f6" stop-opacity="1"></stop></linearGradient></defs><defs><linearGradient id="grad2_0" x1="0%" y1="0%" x2="66.7%" y2="100%"><stop offset="20%" stop-color="#f3f5f6" stop-opacity="1"></stop><stop offset="80%" stop-color="#f3f5f6" stop-opacity="1"></stop></linearGradient></defs><g transform="translate(900, 0)"><path d="M0 216.3C-27.6 193.2 -55.1 170.2 -89.5 155C-123.9 139.9 -165.1 132.7 -187.3 108.2C-209.6 83.7 -213 41.8 -216.3 0L0 0Z" fill="#3cddfa"></path></g><g transform="translate(0, 600)"><path d="M0 -216.3C26.5 -191.4 53 -166.5 87.5 -151.6C122 -136.6 164.5 -131.8 187.3 -108.2C210.2 -84.6 213.2 -42.3 216.3 0L0 0Z" fill="#3cddfa"></path></g></svg>